<svg width="28" height="32" viewBox="0 0 33 32" fill="none" xmlns="http://www.w3.org/2000/svg">
<path d="M24.232 0H9.55604C7.25955 0.00264665 5.05787 0.916097 3.43401 2.53996C1.81014 4.16383 0.89669 6.36551 0.894043 8.662L0.894043 23.338C0.89669 25.6345 1.81014 27.8362 3.43401 29.46C5.05787 31.0839 7.25955 31.9974 9.55604 32H24.232C26.5285 31.9974 28.7302 31.0839 30.3541 29.46C31.9779 27.8362 32.8914 25.6345 32.894 23.338V8.662C32.8914 6.36551 31.9779 4.16383 30.3541 2.53996C28.7302 0.916097 26.5285 0.00264665 24.232 0ZM16.894 24.75C15.1635 24.75 13.4717 24.2368 12.0328 23.2754C10.5939 22.3139 9.47236 20.9473 8.8101 19.3485C8.14783 17.7496 7.97455 15.9903 8.31217 14.293C8.64979 12.5956 9.48315 11.0365 10.7069 9.81282C11.9306 8.58911 13.4897 7.75575 15.187 7.41813C16.8843 7.08051 18.6437 7.25379 20.2425 7.91605C21.8414 8.57832 23.2079 9.69983 24.1694 11.1388C25.1309 12.5777 25.644 14.2694 25.644 16C25.6414 18.3198 24.7187 20.5439 23.0783 22.1843C21.4379 23.8246 19.2139 24.7474 16.894 24.75ZM25.853 9.314C25.3415 9.314 24.8415 9.16231 24.4162 8.87811C23.9909 8.59391 23.6595 8.18998 23.4638 7.71739C23.2681 7.2448 23.2169 6.72479 23.3168 6.22313C23.4167 5.72147 23.6631 5.26069 24.0248 4.89907C24.3866 4.53745 24.8475 4.29124 25.3492 4.19157C25.8509 4.0919 26.3708 4.14325 26.8434 4.33913C27.3159 4.53502 27.7197 4.86663 28.0037 5.29202C28.2877 5.71742 28.4392 6.21749 28.439 6.729C28.4382 7.41451 28.1655 8.07171 27.6807 8.55635C27.1959 9.04099 26.5386 9.31347 25.853 9.314Z" fill="white"/>
</svg>
