<svg width="21" height="21" viewBox="0 0 21 21" fill="none" xmlns="http://www.w3.org/2000/svg">
<path d="M10.4148 5.23328C9.89562 5.23328 9.3881 5.38723 8.95642 5.67567C8.52474 5.96411 8.18829 6.37408 7.98961 6.85373C7.79093 7.33339 7.73895 7.86119 7.84023 8.37039C7.94152 8.87959 8.19153 9.34732 8.55864 9.71443C8.92575 10.0815 9.39348 10.3316 9.90268 10.4328C10.4119 10.5341 10.9397 10.4821 11.4193 10.2835C11.899 10.0848 12.309 9.74833 12.5974 9.31665C12.8858 8.88497 13.0398 8.37745 13.0398 7.85828C13.039 7.16233 12.7622 6.49511 12.2701 6.003C11.778 5.51088 11.1107 5.23407 10.4148 5.23328ZM10.4148 9.17078C10.1552 9.17078 9.90145 9.0938 9.68561 8.94958C9.46977 8.80536 9.30154 8.60038 9.2022 8.36055C9.10286 8.12072 9.07687 7.85682 9.12751 7.60222C9.17816 7.34762 9.30316 7.11375 9.48672 6.9302C9.67027 6.74664 9.90414 6.62164 10.1587 6.571C10.4133 6.52035 10.6772 6.54634 10.9171 6.64568C11.1569 6.74502 11.3619 6.91325 11.5061 7.12909C11.6503 7.34493 11.7273 7.59869 11.7273 7.85828C11.7269 8.20625 11.5885 8.53986 11.3424 8.78591C11.0964 9.03196 10.7628 9.17037 10.4148 9.17078Z" fill="#0599A9"/>
<path d="M15.459 2.81022C14.2119 1.56337 12.547 0.822681 10.7859 0.731124C9.0247 0.639566 7.29205 1.20363 5.9223 2.31444C4.55256 3.42525 3.64284 5.00407 3.36871 6.74618C3.09458 8.48829 3.47548 10.2702 4.4379 11.748L9.39697 19.361C9.50733 19.5304 9.65822 19.6696 9.83597 19.7659C10.0137 19.8623 10.2127 19.9127 10.4149 19.9127C10.6171 19.9127 10.816 19.8623 10.9938 19.7659C11.1715 19.6696 11.3224 19.5304 11.4328 19.361L16.392 11.748C17.285 10.3771 17.6797 8.74095 17.5098 7.11372C17.34 5.48649 16.6159 3.9671 15.459 2.81022ZM15.2923 11.0316L10.4149 18.519L5.53744 11.0316C4.04448 8.73965 4.36468 5.6725 6.29882 3.73828C6.83934 3.19774 7.48105 2.76896 8.18729 2.47642C8.89353 2.18388 9.65047 2.03331 10.4149 2.03331C11.1793 2.03331 11.9363 2.18388 12.6425 2.47642C13.3488 2.76896 13.9905 3.19774 14.531 3.73828C16.4651 5.6725 16.7853 8.73965 15.2923 11.0316Z" fill="#0599A9"/>
</svg>
