<svg width="31" height="25" viewBox="0 0 36 30" fill="none" xmlns="http://www.w3.org/2000/svg">
<path d="M13.159 29.675C11.5935 29.6734 10.0305 29.5504 8.484 29.307C6.24444 28.8676 4.08716 28.0815 2.09 26.977L0 25.834L2.263 25.09C4.736 24.277 6.241 23.772 8.103 22.982C7.1589 22.5207 6.31817 21.8728 5.63167 21.0773C4.94517 20.2818 4.42717 19.3554 4.109 18.354L3.583 16.754L4.015 16.82C3.64749 16.4494 3.31785 16.043 3.031 15.607C2.1544 14.3038 1.71265 12.7566 1.769 11.187L1.869 9.79197L2.704 10.115C2.35091 9.44854 2.09626 8.73445 1.948 7.99497C1.58964 6.13947 1.894 4.21704 2.808 2.56297L3.533 1.22797L4.506 2.39597C7.38943 5.98293 11.5437 8.32147 16.106 8.92597C15.9093 7.6822 16.0548 6.40833 16.527 5.24097C17.0985 3.89914 18.0805 2.77291 19.332 2.02397C20.8016 1.13492 22.5078 0.716225 24.222 0.823973C26.0017 0.917915 27.6958 1.61763 29.023 2.80697C29.6195 2.64417 30.2061 2.44718 30.78 2.21697C31.165 2.07197 31.602 1.90697 32.149 1.71697L34.165 1.02497L32.851 4.77797C32.938 4.77097 33.027 4.76497 33.12 4.76097L35.272 4.66097L34 6.40097C33.927 6.50097 33.909 6.52897 33.883 6.56797C33.783 6.72197 33.653 6.91497 31.907 9.24597C31.4591 9.86634 31.2416 10.6235 31.292 11.387C31.4843 14.149 31.1082 16.9211 30.187 19.532C29.3816 21.7283 28.0537 23.6956 26.318 25.264C24.0163 27.2694 21.2193 28.6216 18.218 29.18C16.5529 29.5169 14.8578 29.6827 13.159 29.675Z" fill="white"/>
</svg>
